# xmcd CD database file
#
# Track frame offsets:
#	150
#	9461
#	23629
#	39379
#	67876
#	98745
#	133975
#	156876
#	174819
#	189210
#	205527
#	226510
#	252918
#
# Disc length: 3727 seconds
#
# Revision: 2
# Processed by: cddbd v1.5.2PL0 Copyright (c) Steve Scherf et al.
# Submitted via: CDex 1.51
#
DISCID=8f0e8d0d
DTITLE=Jon Lord with The Hoochie Coochie Men And Special Guest Jimmy Barnes - Live At The Basement (Disc-1)
DYEAR=2003
DGENRE=Blues
TTITLE0=Intruduction
TTITLE1=Hideaway
TTITLE2=Lonesome Traveller Blues
TTITLE3=Blues With A Feeleing
TTITLE4=You Got Good Business
TTITLE5=Green Onions
TTITLE6=24/7 Blues
TTITLE7=Baby Please Don't Go
TTITLE8=The Money Doesn't Matter
TTITLE9=Strange Brew
TTITLE10=Dallas
TTITLE11=I Just Wanna Make Love To You
TTITLE12=You Need Love
EXTD=YEAR: 2003
EXTT0=
EXTT1=
EXTT2=
EXTT3=
EXTT4=
EXTT5=
EXTT6=
EXTT7=
EXTT8=
EXTT9=
EXTT10=
EXTT11=
EXTT12=
PLAYORDER=
